<?xml version="1.0" encoding="utf-8"?>
<svg xmlns="http://www.w3.org/2000/svg" viewBox="62.9905 58.2228 256.9635 258.6086" width="256.964px" height="258.609px" preserveAspectRatio="none"><g id="object-2" style="" transform="matrix(0.9391940832138062, 0, 0, 0.9452069997787476, 191.4722137451172, 187.52713012695312)"><path style="stroke-dasharray: none; stroke-linecap: round; stroke-dashoffset: 0; stroke-linejoin: round; stroke-miterlimit: 4; fill-rule: evenodd; opacity: 1; paint-order: stroke markers; pointer-events: none; shape-rendering: geometricprecision; stroke-width: 13px; fill: rgb(47, 96, 198); stroke: rgb(5, 14, 116);" vector-effect="non-scaling-stroke" transform=" translate(-136.8, -136.8)" d="M 167.993591 147.736965 C 164.703873 145.072952 160.699974 142.99918 155.982033 141.515579 C 152.581696 140.446301 148.792786 139.596474 144.615372 138.96603 C 153.080956 138.750801 161.256226 138.354401 169.141319 137.776829 L 167.993591 147.736965 Z M 171.244377 137.617973 C 182.3932 136.74995 192.954082 135.514915 202.926888 133.912937 C 224.693619 130.416298 241.914207 125.428059 254.588516 118.948185 C 267.262825 112.468277 273.599979 104.769367 273.600014 95.851387 C 273.599979 84.559673 265.609657 75.978664 249.628979 70.108189 C 233.648335 64.237782 212.15712 59.923176 185.155334 57.164406 L 134.733513 52.0639 C 115.997566 50.203331 103.415199 48.038029 96.986137 45.56789 C 90.557144 43.097889 87.342613 39.649384 87.342613 35.222477 C 87.342613 30.795673 91.659279 27.363235 100.292473 24.925266 C 108.741989 22.551395 119.946877 21.364494 133.906998 21.364494 C 147.683441 21.364494 161.000587 21.941895 173.858608 23.096695 C 174.960777 30.282372 178.726376 35.479145 185.1553 38.687016 L 238.607872 38.687016 C 241.914207 36.377346 244.715412 33.586475 247.011486 30.314438 C 249.307491 27.042435 251.052635 23.882698 252.246506 20.835194 C 253.440514 17.787655 254.037449 15.526154 254.037483 14.050552 L 254.037483 9.527412 C 215.830811 3.175838 176.613911 0 136.386749 0 C 109.568642 0.000034 86.05687 1.636036 65.851364 4.908039 C 45.645927 8.180111 29.894897 12.767349 18.598206 18.669857 C 7.301582 24.572365 1.653168 31.501339 1.653236 39.456951 C 1.653236 59.923176 31.226646 73.075447 90.373466 78.913765 L 148.510025 84.784241 C 159.34742 86.003208 167.705132 87.543045 173.583092 89.403545 C 179.461052 91.264149 182.951031 93.028484 184.053165 94.696587 C 185.1553 96.300488 185.706367 98.385658 185.706333 100.951962 C 185.706402 106.341202 180.057987 110.47934 168.761398 113.366444 C 157.464638 116.253479 143.091293 117.697083 125.641159 117.697083 C 107.639923 117.697048 92.302185 116.702648 79.627808 114.713779 C 78.525673 107.977169 74.943787 102.523762 68.882217 98.353558 L 15.154129 98.353558 C 12.03154 100.663227 9.322037 103.470097 7.026031 106.774303 C 4.729958 110.078339 2.985054 113.23811 1.790977 116.253548 C 0.597038 119.268917 0.000069 121.514454 0 122.990055 L 0.000069 127.609428 C 15.797035 131.266399 35.635117 134.105335 59.514244 136.126339 C 66.374588 136.706966 73.181992 137.204166 79.93618 137.617939 L 76.897636 137.617973 L 1.885323 137.617973 L 0.000137 153.978127 C 1.759598 156.480366 5.310104 158.693733 10.651588 160.618572 L 10.65152 250.695751 C 5.247208 252.812954 1.696838 254.994221 0.000137 257.239826 L 1.885323 273.599979 L 76.897636 273.599911 L 91.526894 273.599911 L 129.023575 273.599979 L 131.003036 257.239758 C 128.615089 254.224285 122.770912 251.658085 113.470642 249.540813 L 113.470711 217.97541 L 126.007278 217.975273 C 128.772125 217.975342 131.128693 220.41338 133.076843 225.289215 L 155.322235 273.599979 L 169.159653 273.599979 L 187.936249 273.599979 L 221.285522 273.599979 L 223.265053 257.239826 C 220.877106 254.224354 215.032928 251.658016 205.73259 249.540882 L 205.732727 226.251617 L 214.404579 226.251652 C 239.556164 226.251652 256.692741 220.205566 265.814346 208.113464 C 271.004768 201.232658 273.599991 192.394169 273.600014 181.597996 C 273.600014 170.691147 271.651966 162.062004 267.755905 155.710396 C 263.859776 149.358822 257.968563 144.787514 250.082062 141.996712 C 242.195663 139.205841 232.282642 137.746273 220.342999 137.618008 L 171.244377 137.617973 Z M 217.232357 159.078701 L 205.732658 159.078701 L 205.732555 204.790993 L 218.646297 204.790924 C 227.381046 204.790993 233.900745 203.010658 238.205257 199.449886 C 242.509838 195.88908 244.662094 189.746075 244.662094 181.020561 C 244.662163 172.230915 242.321388 166.376575 237.639771 163.457439 C 232.958118 160.5382 226.155693 159.078667 217.232357 159.078701 Z M 177.92585 188.198135 C 176.584694 192.55957 174.360134 196.454498 171.252171 199.882885 C 165.785076 205.913738 158.935501 210.500999 150.703445 213.644669 C 157.113144 216.403542 161.354828 219.771744 163.428566 223.749584 L 177.345085 250.926258 C 177.536282 250.849354 177.729813 250.772518 177.925816 250.695751 L 177.92585 188.198135 Z M 177.92585 163.783974 L 177.92585 160.618435 C 177.55077 160.483269 177.18441 160.346695 176.826977 160.208611 C 177.242569 161.346451 177.608894 162.538124 177.92585 163.783974 Z M 124.781891 159.078701 L 113.470711 159.078667 L 113.470642 196.514717 L 124.404854 196.514614 C 133.202499 196.514717 139.75351 195.167278 144.05809 192.47271 C 148.362602 189.778141 150.514961 184.9342 150.514893 177.94099 C 150.514961 171.011982 148.331223 166.136044 143.963882 163.313038 C 139.596405 160.490135 133.202431 159.078667 124.781891 159.078701 Z M 85.663834 238.591496 L 85.663834 172.425476 L 75.691063 173.706654 C 72.674835 171.076115 70.286819 166.200142 68.527359 159.078701 L 38.45826 159.078701 L 38.45826 192.953876 L 65.228096 192.953808 C 66.79921 189.104404 68.401703 186.345669 70.035507 184.677532 L 82.195038 186.121067 L 82.195038 221.151146 L 70.035507 222.787113 C 68.464531 221.43988 66.862106 218.681076 65.228165 214.510838 L 38.458328 214.510838 L 38.45826 252.139217 L 70.035439 252.139149 C 71.73214 245.210209 74.120087 240.33427 77.199348 237.511333 L 85.663834 238.591496 Z" stroke-linecap="round"/></g></svg>